<svg id="Layer_1" xmlns="http://www.w3.org/2000/svg" width="144" height="54" viewBox="0 0 144 54"><style>.st0,.st1,.st2{fill-rule:evenodd;clip-rule:evenodd;fill:#333e48}.st1,.st2{fill:#a4a9ad}.st2{fill:#5c6670}.st3{fill:#333e48}</style><path class="st0" d="M9.6 45.7l23-13.3 9.7 5.6h-9.4c-.7 0-.6.6 0 .7.4.1 14.6 2.3 14.6 2.3l1.8.9H32.8c-.6 0-.6.7 0 .7.6.1 21.6 2.4 21.6 2.4l1.2.7h-46z"/><path class="st1" d="M31 3.1v27l-9.8 5.7 4.8-8.2c.4-.6-.2-.9-.6-.3-.3.3-9.3 11.5-9.3 11.5l-1.4.8 8-14c.3-.6-.3-.8-.6-.4-.4.5-13 17.5-13 17.5l-1.2.7L31 3.1z"/><path class="st2" d="M57.4 43.5L34 30V18.7l4.7 8.3c.4.6.9.2.6-.4-.1-.4-5.3-13.9-5.3-13.9V11l8.1 14c.3.6.9.2.6-.4-.3-.6-8.7-20-8.7-20V3.3l23.4 40.2z"/><path class="st3" d="M61.8 39.3c1.3 2.2 3.4 3.3 5.9 3.3 3.3 0 5.9-2.2 5.9-5.6 0-6.6-9.6-4.2-9.6-8.9 0-2.4 1.8-3.5 4-3.5 1.6 0 2.7.8 3.9 1.8l1-1.3c-1.1-1.3-3-2.1-4.9-2.1-3.2 0-5.9 1.9-5.9 5.3 0 6.5 9.6 3.7 9.6 8.9 0 2.4-1.7 3.7-4 3.7-2.1 0-3.5-.8-4.6-2.6l-1.3 1zm17.3-10.8H83v-1.3h-9.1l-.3 1.3h4.1v13.9l1.4-.2zm14 13.7l.2-1.4h-7.4v-5.6h6v-1.3h-6v-5.4h7l-.2-1.3h-8.1v15zm10.6 0l.3-1.4h-7.4v-5.6h6v-1.3h-6v-5.4h7l-.3-1.3h-8.1v15zm6.6-3.2l-4.1-12.2-1.3.5 5.3 15.4h.1l5.6-15.4-1.4-.4zm15.4 3.1l.2-1.3h-7.3v-5.6h6v-1.4h-6v-5.3h7l-.3-1.4h-8.1v15zm1-2.2c1.1 1.8 2.7 2.6 4.7 2.6 2.6 0 4.7-1.7 4.7-4.5 0-5.3-7.7-3.3-7.7-7.1 0-1.9 1.5-2.8 3.2-2.8 1.3 0 2.2.6 3.1 1.4l.8-1c-1-1.1-2.5-1.8-4-1.8-2.6 0-4.7 1.5-4.7 4.2 0 5.2 7.7 2.9 7.7 7.1 0 1.9-1.4 3-3.2 3-1.7 0-2.8-.7-3.7-2.1l-.9 1zm-61.1 8.8h-1.9l.9-2.2 1 2.2zm.3.6l.6 1.3h.7L64.7 45l-2.5 5.6h.7l.6-1.3h2.4zm3.1 1.4h.7v-4l4 4.2v-5.5H73v3.9l-4-4.2zm7.6-4.7h.2c1.4 0 2.5.5 2.5 2.1 0 1.5-1.2 2.1-2.5 2.1h-.2V46zm-.6 4.7h1.1c1.7 0 3-.9 3-2.7 0-1.8-1.4-2.6-3-2.6H76v5.3zm11-1.9h-1.9l.9-2.2 1 2.2zm.3.6l.6 1.3h.7l-2.5-5.6-2.5 5.6h.7l.6-1.3h2.4zm6.1-3.3c-.3-.5-.8-.8-1.4-.8-.8 0-1.6.5-1.6 1.4 0 .7.6 1.1 1.2 1.3l.4.2c.5.2.9.4.9 1s-.4 1-1 1-1-.4-1-1l-.7.1c.1.9.8 1.5 1.6 1.5 1 0 1.7-.7 1.7-1.7 0-.9-.6-1.3-1.3-1.6l-.4-.1c-.3-.1-.7-.3-.7-.8s.5-.8.9-.8.7.2.9.5l.5-.2zm5.2 0c-.3-.5-.8-.8-1.4-.8-.8 0-1.6.5-1.6 1.4 0 .7.6 1.1 1.2 1.3l.4.2c.5.2.9.4.9 1s-.4 1-1 1-1-.4-1-1l-.7.1c.1.9.8 1.5 1.6 1.5 1 0 1.7-.7 1.7-1.7 0-.9-.6-1.3-1.3-1.6l-.4-.1c-.3-.1-.7-.3-.7-.8s.5-.8.9-.8.7.2.9.5l.5-.2zm4.7 4.1c-1.2 0-2.1-.9-2.1-2.2 0-1.2.9-2.2 2.1-2.2 1.2 0 2.1 1 2.1 2.2 0 1.3-.9 2.2-2.1 2.2zm0-4.9c-1.5 0-2.8 1.3-2.8 2.8 0 1.6 1.3 2.8 2.8 2.8 1.5 0 2.8-1.2 2.8-2.8 0-1.6-1.3-2.8-2.8-2.8zm8.7.3c-.4-.2-.9-.4-1.3-.4-1.6 0-2.8 1.2-2.8 2.8 0 1.5 1.3 2.7 2.8 2.7.5 0 1-.1 1.4-.4v-.8c-.4.4-.9.6-1.4.6-1.2 0-2.1-1-2.1-2.2 0-1.2.9-2.2 2.1-2.2.5 0 1 .2 1.4.5v-.6zm2.2-.2h.7v5.3h-.7zm6 3.4h-1.9l.9-2.2 1 2.2zm.3.6l.6 1.3h.7l-2.5-5.6-2.5 5.6h.7l.6-1.3h2.4zm4-3.4h1.3v-.6h-3.2v.6h1.3v4.7h.6zm3.2 4.7h2.9v-.6h-2.2v-2h2.1v-.6h-2.1V46h2.2v-.6h-2.9zm8-4.6c-.3-.5-.8-.8-1.4-.8-.8 0-1.6.5-1.6 1.4 0 .7.6 1.1 1.2 1.3l.4.2c.5.2.9.4.9 1s-.4 1-1 1-1-.4-1-1l-.7.1c.1.9.8 1.5 1.6 1.5 1 0 1.7-.7 1.7-1.7 0-.9-.6-1.3-1.3-1.6l-.4-.1c-.3-.1-.7-.3-.7-.8s.5-.8.9-.8.7.2.9.5l.5-.2z"/></svg>